<?xml version="1.0" encoding="UTF-8" standalone="no"?>
<svg
   xmlns:dc="http://purl.org/dc/elements/1.1/"
   xmlns:cc="http://creativecommons.org/ns#"
   xmlns:rdf="http://www.w3.org/1999/02/22-rdf-syntax-ns#"
   xmlns:svg="http://www.w3.org/2000/svg"
   xmlns="http://www.w3.org/2000/svg"
   xmlns:sodipodi="http://sodipodi.sourceforge.net/DTD/sodipodi-0.dtd"
   xmlns:inkscape="http://www.inkscape.org/namespaces/inkscape"
   version="1.1"
   id="Layer_1"
   x="0px"
   y="0px"
   viewBox="0 0 600 327"
   xml:space="preserve"
   sodipodi:docname="Bangla WikiConference 2024 logo.svg"
   width="600"
   height="327"
   inkscape:version="1.0.2-2 (e86c870879, 2021-01-15)"><metadata
   id="metadata276"><rdf:RDF><cc:Work
       rdf:about=""><dc:format>image/svg+xml</dc:format><dc:type
         rdf:resource="http://purl.org/dc/dcmitype/StillImage" /></cc:Work></rdf:RDF></metadata><defs
   id="defs274" /><sodipodi:namedview
   pagecolor="#ffffff"
   bordercolor="#666666"
   borderopacity="1"
   objecttolerance="10"
   gridtolerance="10"
   guidetolerance="10"
   inkscape:pageopacity="0"
   inkscape:pageshadow="2"
   inkscape:window-width="1920"
   inkscape:window-height="991"
   id="namedview272"
   showgrid="false"
   inkscape:zoom="2.025"
   inkscape:cx="300"
   inkscape:cy="163.5"
   inkscape:window-x="-9"
   inkscape:window-y="-9"
   inkscape:window-maximized="1"
   inkscape:current-layer="Layer_1" />
<style
   type="text/css"
   id="style211">
	.st0{fill:#636466;}
	.st1{fill:#0000FF;}
	.st2{fill:#FF0000;}
	.st3{fill:#FF7F00;}
	.st4{fill:#FFC629;}
	.st5{fill:#00A550;}
	.st6{fill:none;}
</style>
<g
   id="g267">
	<g
   id="g221">
		<path
   class="st0"
   d="m 574.7,38.3 c -5.7,0 -10.8,3.4 -14.2,8.8 -3,-3.9 -7.2,-6.3 -11.8,-6.3 -9.3,0 -16.9,10 -16.9,22.4 0,12.4 7.6,22.4 16.9,22.4 4.6,0 8.7,-2.4 11.8,-6.3 3.4,5.4 8.5,8.8 14.2,8.8 10.3,0 18.6,-11.1 18.6,-24.9 0,-13.8 -8.3,-24.9 -18.6,-24.9 z m -26,38.3 c -3.7,0 -7.9,-5.7 -7.9,-13.4 0,-7.7 4.2,-13.4 7.9,-13.4 3.1,0 6.5,4 7.6,9.8 0.2,1.2 0.3,2.4 0.3,3.7 0,1.3 -0.1,2.5 -0.3,3.7 -1.1,5.6 -4.5,9.6 -7.6,9.6 z m 26,2.5 c -3.9,0 -8.2,-4.8 -9.3,-12.1 -0.2,-1.2 -0.3,-2.5 -0.3,-3.8 0,-1.3 0.1,-2.6 0.3,-3.8 1.1,-7.3 5.4,-12.1 9.3,-12.1 4.5,0 9.6,6.5 9.6,15.9 0,9.4 -5.1,15.9 -9.6,15.9 z"
   id="path213" />
		<path
   class="st0"
   d="m 586.9,118.5 c 0,0 0,0 0,0 -2.6,3 -5.1,6.1 -7.4,9.5 -2,2.8 -3.9,5.8 -5.7,8.9 -0.9,-3 -2.2,-5.6 -3.8,-7.8 -1,-1.3 -2,-2.4 -3.2,-3.4 -1.5,-1.4 -3.2,-2.4 -5.1,-2.9 -0.2,0 -0.3,-0.1 -0.5,-0.1 -0.7,-0.1 -1.5,-0.2 -2.5,-0.3 -2.3,0 -4.4,0.5 -6.2,1.5 -3.2,1.7 -5.9,3.8 -7.8,6.6 l -2.9,4.1 c -1.9,2.9 -3.5,5.2 -4.9,6.8 -1.6,1.8 -2.9,2.8 -3.9,2.8 h -2.6 v 9.2 c 0.8,0.2 1.7,0.3 2.7,0.3 5.2,0 10.1,-3.7 14.8,-11.2 l 1.3,-1.8 c 2.5,-3.8 4.7,-6.5 6.9,-7.8 0.8,-0.5 1.5,-0.8 2.2,-0.8 1.5,0 2.9,1 4.2,3 2.2,3.3 3.3,7.2 3.3,11.7 0,4 -0.7,8 -2.1,11.9 l 3.8,1.3 c 1.1,0.3 2.8,1 5.2,1.9 1,-2.9 2.2,-5.9 3.7,-9 0.5,-1.1 1,-2.1 1.6,-3.2 0.2,-0.4 0.4,-0.7 0.6,-1.1 0.9,-1.9 2,-3.8 3.1,-5.8 4,-6.8 8.4,-13 13.2,-18.6 v -13.8 c -2.9,2.4 -5.4,5.1 -8,8.1 z"
   id="path215" />
		<path
   class="st0"
   d="m 547.1,221.3 c 0,-8.5 6.9,-15.4 15.4,-15.4 8.5,0 15.4,6.9 15.4,15.4 0,8.5 -6.9,15.4 -15.4,15.4 -8.5,0 -15.4,-6.9 -15.4,-15.4 m -9.5,0 c 0,13.8 11.2,24.9 24.9,24.9 13.7,0 24.9,-11.2 24.9,-24.9 0,-13.8 -11.2,-24.9 -24.9,-24.9 -13.7,0 -24.9,11.1 -24.9,24.9 z"
   id="path217" />
		<path
   class="st0"
   d="m 586.9,276.6 c 0,0.1 0,0.1 0,0 -2.6,3 -5.1,6.1 -7.4,9.5 -2,2.8 -3.9,5.8 -5.7,8.9 -0.9,-3 -2.2,-5.6 -3.8,-7.8 -1,-1.3 -2,-2.4 -3.2,-3.4 -1.5,-1.4 -3.2,-2.4 -5.1,-2.9 -0.2,0 -0.3,-0.1 -0.5,-0.1 -0.7,-0.1 -1.5,-0.2 -2.5,-0.3 -2.3,0 -4.4,0.5 -6.2,1.5 -3.2,1.7 -5.9,3.8 -7.8,6.6 l -2.9,4.1 c -1.9,2.9 -3.5,5.2 -4.9,6.8 -1.6,1.8 -2.9,2.8 -3.9,2.8 h -2.6 v 9.2 c 0.8,0.2 1.7,0.3 2.7,0.3 5.2,0 10.1,-3.7 14.8,-11.2 l 1.3,-1.8 c 2.5,-3.8 4.7,-6.5 6.9,-7.8 0.8,-0.5 1.5,-0.8 2.2,-0.8 1.5,0 2.9,1 4.2,3 2.2,3.3 3.3,7.2 3.3,11.7 0,4 -0.7,8 -2.1,11.9 l 3.8,1.3 c 1.1,0.3 2.8,1 5.2,1.9 1,-2.9 2.2,-5.9 3.7,-9 0.5,-1.1 1,-2.1 1.6,-3.2 0.2,-0.4 0.4,-0.7 0.6,-1.1 0.9,-1.9 2,-3.8 3.1,-5.8 4,-6.8 8.4,-13 13.2,-18.6 v -13.8 c -2.9,2.5 -5.4,5.2 -8,8.1 z"
   id="path219" />
	</g>
	<g
   id="g241">
		<path
   d="m 485,320 v -29.8 c 0,-2.5 -2,-4.4 -4.4,-4.4 H 471 c -2.5,0 -4.4,2 -4.4,4.4 v 8.2 c 0,2.5 2,4.4 4.4,4.4 h 3.8 v 10.3 H 471 c -8.1,0 -14.7,-6.6 -14.7,-14.7 v -8.2 c 0,-8.1 6.6,-14.7 14.7,-14.7 h 9.6 c 0.8,0 1.6,0.1 2.5,0.2 l 2,0.3 V 265.2 H 455 V 255 h 40.4 v 65 z"
   id="path223" />
		<path
   d="m 434.4,320 v -36.2 h -5.2 c -2,0 -3.9,1 -5,2.8 -0.6,1 -1,2.1 -1,3.2 v 7.6 h -10.3 v -4.7 c 0,-2.9 -2.2,-5.5 -5.1,-5.9 -0.3,0 -0.6,-0.1 -0.9,-0.1 h -6.5 c -1.1,0 -2.1,0.3 -3,0.8 -1.7,1 -2.8,2.8 -2.9,4.8 v 0.3 7.2 0.1 c 0.1,3.2 2.7,5.8 6,5.8 h 2.9 V 316 h -2.9 c -1.3,0 -2.6,-0.2 -3.9,-0.5 -7.3,-1.8 -12.4,-8.3 -12.4,-15.8 v -7.1 c 0,-9 7.3,-16.3 16.3,-16.3 h 6.5 c 3,0 5.9,0.8 8.4,2.3 l 1.2,0.7 0.9,-1 c 3.1,-3.2 7.3,-5 11.7,-5 h 5.2 V 265 h -51.6 v -10 h 61.9 v 65 z"
   id="path225" />
		<path
   d="m 362.2,320 v -16.1 l -0.6,-0.5 c -2.4,-2 -5.3,-3.2 -8.3,-3.7 -0.5,-0.1 -1.1,-0.2 -1.6,-0.2 h -15 c -3.6,0 -6.5,2.9 -6.5,6.5 0,3.6 2.9,6.5 6.5,6.5 h 5.8 v 7.5 h -5.8 c -7.7,0 -14,-6.3 -14,-14 0,-7.7 6.3,-14 14,-14 h 2.9 l -0.2,-1.8 c -0.1,-1.3 -0.5,-2.5 -1.2,-3.7 l -0.7,-1.1 -1.3,0.3 c -1.6,0.4 -3.5,0.7 -5.4,0.7 -2.8,0 -5.1,-0.4 -6.8,-1.1 -1.9,-0.8 -3.5,-1.6 -4.8,-2.4 -1.4,-0.8 -2.4,-1.4 -3.5,-1.8 -1.2,-0.5 -2.6,-0.8 -4.1,-0.8 -1.4,0 -2.8,0.6 -3.9,1.7 -1,0.9 -1.6,2.4 -1.7,4.4 h -9.8 c 0.3,-3.6 1.7,-6.7 4.2,-9.3 1.6,-1.7 3.4,-2.9 5.5,-3.6 l 1.6,-0.6 -0.5,-1.6 c -0.3,-0.8 -0.7,-1.4 -1.5,-2 -1,-0.8 -2.5,-1.1 -4.4,-1.1 h -5 V 255 h 76.4 v 65 z m -13.1,-28.1 h 2.5 c 2.5,0 4.9,0.7 7,1.9 0.2,0.1 0.4,0.3 0.6,0.4 l 3,2 v -31 h -12.8 v 2.2 c 0,2.3 -0.3,4.5 -1,6.5 -0.7,2 -1.7,3.9 -3.1,5.6 l -0.8,1.1 0.8,1.1 c 2,2.6 3.3,5.5 3.7,8.5 v 1.7 z m -30.7,-18.4 c 1.7,0.7 3.3,1.5 4.5,2.3 1.2,0.7 2.4,1.4 3.6,1.9 1.3,0.6 2.8,0.9 4.3,0.9 2.6,0 4.8,-1.1 6.5,-3.2 1.5,-2 2.3,-4.3 2.3,-6.9 v -3.2 h -25.4 l 1.5,2.6 c 0.7,1.2 1.1,2.6 1.2,4.1 l 0.1,1.4 1.2,0.2 z"
   id="path227" />
		<path
   d="M 293.5,318.6 C 282.8,315 275.6,305 275.6,293.5 V 255 h 10.3 v 22.7 0 15.8 c 0,5.6 2.9,10.8 7.7,13.8 v 11.3 z"
   id="path229" />
		<path
   d="m 255,320 v -13.3 -0.1 c -0.5,-2.7 -1.7,-5.1 -3.6,-7.1 -2.2,-2.3 -5.1,-3.7 -8.2,-4.1 l -1.8,-0.2 -0.1,1.9 c -0.4,9.8 -6.6,18.3 -15.9,21.7 -2.5,0.9 -5.3,1.4 -8.1,1.4 H 214 v -10.3 h 3.3 c 3.7,0 7.2,-1.5 9.9,-4.2 2.5,-2.6 3.8,-5.9 3.8,-9.5 0,-3.5 -1.4,-6.9 -3.8,-9.5 -2.6,-2.7 -6.1,-4.2 -9.9,-4.2 H 214 v -7.5 0 -19.9 h 51.3 v 10.3 1.7 53 H 255 Z m -30.8,-46.9 1.1,0.4 c 3.4,1.2 6.3,3.1 8.9,5.6 1.5,1.5 2.8,3.2 3.8,5 l 0.5,0.9 h 3 c 2.8,0 5.5,0.5 8,1.4 1.1,0.4 2,0.8 2.9,1.3 l 2.5,1.4 v -23.7 h -30.8 v 7.7 z"
   id="path231" />
		<path
   d="m 203.7,255 h -60.5 v 10.3 H 162 l -18.7,21.6 v 12 l 21.7,13 1,0.6 h 0.1 l 0.5,0.3 c 2.3,1.8 3.8,4.3 4.1,7.2 H 181 v -44.4 c 2.5,0.4 4.8,1.5 6.3,3.2 1.4,1.5 2.2,3.4 2.2,5.3 0,1.8 -0.6,3.4 -1.7,4.8 v 12.4 c 7.2,-3.1 12,-9.7 12,-17.2 0,-7 -4.2,-13.4 -10.9,-16.7 -1,-0.5 -2.1,-0.9 -3.3,-1.3 -1.4,-0.4 -2.9,-0.7 -4.4,-0.9 h 22.7 V 255 Z m -33.1,48.3 -18.5,-11.1 18.5,-21.2 z"
   id="path233" />
		<path
   d="M 170.6,227.7 V 238 H 162 c -5.1,0 -10.1,1.3 -14.5,3.9 -8.8,5.1 -14.4,14.5 -14.5,24.7 v 53.3 H 122.7 V 267 c 0,-11.2 4.8,-21.8 13.1,-29.3 3.8,-3.5 8.3,-6.1 13.1,-7.8 4.2,-1.5 8.6,-2.3 13.1,-2.3 h 8.6 z"
   id="path235" />
		<path
   d="m 87.7,319.9 -20,-13.5 V 294 l 1.4,0.9 c 4.2,2.7 7.8,5 12.1,6.1 1.9,0.5 3.8,0.7 5.7,0.7 2.5,0 4.8,-0.4 6.8,-1.3 0.2,-0.1 0.4,-0.2 0.6,-0.3 3.5,-1.6 6.1,-4.4 7.1,-7.7 0.6,-2.1 0.6,-4.5 -0.1,-6.8 -0.3,-1 -0.7,-2 -1.3,-3 -1.8,-3 -5,-5.4 -8.6,-6.6 -1.5,-0.5 -2.9,-0.8 -4.2,-0.8 -0.5,0 -0.9,0 -1.3,0.1 -0.6,0.1 -1.2,0.3 -1.8,0.5 -1.7,0.8 -3.2,2.6 -4.1,5 -0.7,1.8 -1.1,3.8 -1.3,5.6 l -9.3,-6.2 c 0.3,-1.1 0.6,-2.1 1,-3.1 1.1,-2.8 2.6,-5.3 4.6,-7.3 0.6,-0.6 1.2,-1.2 1.8,-1.6 L 81,265.1 H 67.6 V 255 h 33.3 l 0.3,-1.3 c 0.2,-0.9 0.3,-1.9 0.1,-2.8 -0.4,-3.4 -3,-6.6 -6.5,-7.8 -1.4,-0.5 -2.7,-0.8 -4.1,-1 l -7.3,-1.5 -0.2,-0.1 c -0.9,-0.2 -1.8,-0.4 -2.7,-0.6 l -1.1,-0.2 c -1,-0.2 -2.1,-0.4 -3.1,-0.6 -3,-0.6 -5.9,-1.2 -8.9,-1.8 V 227 l 9.3,2 c 1,0.2 2.1,0.5 3.2,0.7 2.4,0.5 4.7,1 7.1,1.5 2.1,0.4 4.2,0.9 6.4,1.4 9.5,2.1 17.1,10 18.4,19.2 0.1,0.6 0.1,1.2 0.2,1.7 v 11.8 H 93.5 l 5.7,3.2 c 3.9,2.2 7.1,5.2 9.3,8.8 3.2,5.3 4.3,11.8 2.7,17.5 -0.1,0.2 -0.1,0.4 -0.1,0.5 -1.2,3.9 -3.5,7.4 -6.7,10.2 -2.1,1.8 -4.4,3.3 -7,4.4 -0.1,0.1 -0.9,0.3 -0.9,0.3 l -3.1,1.2 12.6,8.5 z"
   id="path237" />
		<path
   d="M 34.5,319.9 C 18.2,319.9 5,306.7 5,290.4 v -14.9 h 10.3 v 14.9 c 0,10.6 8.6,19.2 19.2,19.2 6.1,0 11.3,-4.4 12.4,-10.4 l 0.4,-2 h -19 v -32 H 5 V 255 h 23.2 l 0.3,-1.3 c 1,-4.2 -1.8,-9 -6.4,-10.7 -1.4,-0.5 -2.7,-0.8 -4.1,-1 L 5,239.3 v -10.2 l 3,0.6 c 2.1,0.4 4.2,0.9 6.3,1.3 2.1,0.4 4.3,0.9 6.4,1.4 9.5,2.1 17.1,10 18.4,19.2 0.1,0.6 0.1,1.2 0.2,1.7 l 0.1,1.6 h 17.9 v 10.3 H 38.5 V 287 h 13 c 1.5,1.5 5.8,5.8 5.8,5.8 v 6.2 c -0.4,5.3 -2.8,10.4 -6.6,14.2 -4.4,4.3 -10.1,6.7 -16.2,6.7 z"
   id="path239" />
	</g>
	<g
   id="g253">
		<rect
   x="461.39999"
   y="4.3000002"
   width="34"
   height="203.7"
   id="rect243" />
		<path
   d="m 443.5,38.3 v 0 h -34 -128.1 v 34 h 128.1 v 12.1 h -8.7 c -12.6,0 -24,5.3 -32.2,13.7 -6.7,-4.1 -14.6,-6.4 -23,-6.4 h -16.2 c -24.6,0 -44.6,20 -44.6,44.6 v 17.6 c 0,20.9 14.5,38.5 34,43.3 3.4,0.8 6.9,1.3 10.6,1.3 h 11.5 v -34 h -11.5 c -5.7,0 -10.4,-4.6 -10.6,-10.3 0,-0.1 0,-0.2 0,-0.4 v -17.6 c 0,-0.1 0,-0.2 0,-0.4 0.1,-3.8 2.2,-7 5.3,-8.8 1.6,-0.9 3.4,-1.5 5.3,-1.5 h 16.2 c 0.6,0 1.1,0.1 1.6,0.1 5.1,0.8 9,5.2 9,10.5 v 10.3 5.5 h 0.4 33.6 v -23.1 c 0,-2.1 0.6,-4.1 1.7,-5.7 1.9,-2.9 5.2,-4.9 8.9,-4.9 h 8.7 V 208 h 34 v -135.8 0 z"
   id="path245" />
		<path
   d="M 262.4,208.1 C 259.2,190.5 249.7,174 234.5,162.2 l -57.8,-44.5 v 42.8 l 37.1,28.5 c 6.6,5 11.1,11.7 13.7,19 2.1,6.1 2.8,12.5 1.9,18.9 h 34.1 c 0.4,-6.3 0.1,-12.6 -1.1,-18.8 z"
   id="path247" />
		<rect
   x="123.8"
   y="4.3000002"
   width="34"
   height="203.7"
   id="rect249" />
		<path
   d="M 106.9,38.3 H 72.9 5 v 34 H 46.4 L 5,119.9 v 18.9 14.9 l 10.2,6.1 45.6,27.4 3.6,2.2 c 0,0 0,0 0,0 5.2,3.9 8.5,10.1 8.5,17 v 1.6 h 34 z M 37.8,133.9 72.9,93.6 V 155 Z"
   id="path251" />
	</g>
	<g
   id="g265">
		<path
   class="st1"
   d="M 230.1,65.4 222.3,83.9 212,42.6 c -0.8,-3.3 3.1,-5.7 5.6,-3.4 l 7.9,6.8 c 5.6,4.8 7.4,12.6 4.6,19.4 z"
   id="path255" />
		<path
   class="st2"
   d="m 207.1,70.7 15.2,13.1 -42.4,-3 c -3.4,-0.2 -4.4,-4.7 -1.5,-6.4 l 8.9,-5.4 c 6.3,-3.7 14.3,-3.1 19.8,1.7 z"
   id="path257" />
		<path
   class="st3"
   d="m 205.2,94.2 17.1,-10.4 -15.9,39.4 c -1.3,3.1 -5.8,2.8 -6.6,-0.5 l -2.4,-10.1 c -1.6,-7.2 1.5,-14.6 7.8,-18.4 z"
   id="path259" />
		<path
   class="st4"
   d="m 226.9,103.3 -4.6,-19.5 32.5,27.3 c 2.6,2.2 0.9,6.4 -2.5,6.1 l -10.4,-0.9 c -7.3,-0.6 -13.3,-5.8 -15,-13 z"
   id="path261" />
		<path
   class="st5"
   d="m 242.3,85.5 -20,-1.7 36,-22.5 c 2.9,-1.8 6.3,1.2 5,4.3 l -4.1,9.6 c -2.8,6.8 -9.6,10.9 -16.9,10.3 z"
   id="path263" />
	</g>
</g>
<rect
   class="st6"
   width="600"
   height="327"
   id="rect269"
   x="0"
   y="0" />
</svg>
